{
    "asset" : {
        "generator" : "Khronos glTF Blender I/O v0.9.36",
        "version" : "2.0"
    },
    "scene" : 0,
    "scenes" : [
        {
            "name" : "Scene",
            "nodes" : [
                1,
                3,
                5,
                6,
                8,
                9,
                10
            ]
        }
    ],
    "nodes" : [
        {
            "camera" : 0,
            "name" : "Camera_Orientation",
            "rotation" : [
                -0.7071067690849304,
                0,
                0,
                0.7071067690849304
            ]
        },
        {
            "children" : [
                0
            ],
            "name" : "Camera",
            "rotation" : [
                0.483536034822464,
                0.33687159419059753,
                -0.20870360732078552,
                0.7804827094078064
            ],
            "translation" : [
                13.390497207641602,
                8.891382217407227,
                13.114974975585938
            ]
        },
        {
            "mesh" : 0,
            "name" : "Circle",
            "rotation" : [
                0,
                0,
                -0.1736481785774231,
                0.9848077297210693
            ]
        },
        {
            "children" : [
                2
            ],
            "mesh" : 1,
            "name" : "Icosphere",
            "translation" : [
                0,
                -0.30000001192092896,
                0
            ]
        },
        {
            "name" : "Circle.001",
            "rotation" : [
                0,
                -0.08579366654157639,
                0,
                0.9963129162788391
            ]
        },
        {
            "children" : [
                4
            ],
            "mesh" : 2,
            "name" : "Icosphere.001",
            "scale" : [
                0.7905885577201843,
                1,
                0.7905885577201843
            ]
        },
        {
            "mesh" : 3,
            "name" : "Icosphere.002"
        },
        {
            "mesh" : 4,
            "name" : "Icosphere.004",
            "translation" : [
                0,
                0,
                -5.246834754943848
            ]
        },
        {
            "children" : [
                7
            ],
            "mesh" : 5,
            "name" : "Icosphere.003"
        },
        {
            "mesh" : 6,
            "name" : "Plane",
            "scale" : [
                18.870471954345703,
                18.870471954345703,
                18.870471954345703
            ],
            "translation" : [
                0,
                -2.0328898429870605,
                0
            ]
        },
        {
            "name" : "Area",
            "scale" : [
                7.724368572235107,
                1,
                7.724368572235107
            ],
            "translation" : [
                0,
                6,
                0
            ]
        }
    ],
    "cameras" : [
        {
            "name" : "Camera",
            "orthographic" : {
                "xmag" : 13.514286041259766,
                "ymag" : 13.514286041259766,
                "zfar" : 100,
                "znear" : 0.10000000149011612
            },
            "type" : "orthographic"
        }
    ],
    "animations" : [
        {
            "channels" : [
                {
                    "sampler" : 0,
                    "target" : {
                        "node" : 3,
                        "path" : "translation"
                    }
                }
            ],
            "name" : "IcosphereAction",
            "samplers" : [
                {
                    "input" : 24,
                    "interpolation" : "CUBICSPLINE",
                    "output" : 25
                }
            ]
        },
        {
            "channels" : [
                {
                    "sampler" : 0,
                    "target" : {
                        "node" : 5,
                        "path" : "rotation"
                    }
                }
            ],
            "name" : "Icosphere.001Action",
            "samplers" : [
                {
                    "input" : 26,
                    "interpolation" : "LINEAR",
                    "output" : 27
                }
            ]
        },
        {
            "channels" : [
                {
                    "sampler" : 0,
                    "target" : {
                        "node" : 6,
                        "path" : "rotation"
                    }
                }
            ],
            "name" : "Icosphere.002Action",
            "samplers" : [
                {
                    "input" : 26,
                    "interpolation" : "LINEAR",
                    "output" : 28
                }
            ]
        },
        {
            "channels" : [
                {
                    "sampler" : 0,
                    "target" : {
                        "node" : 8,
                        "path" : "rotation"
                    }
                }
            ],
            "name" : "Icosphere.003Action",
            "samplers" : [
                {
                    "input" : 26,
                    "interpolation" : "LINEAR",
                    "output" : 29
                }
            ]
        },
        {
            "channels" : [
                {
                    "sampler" : 0,
                    "target" : {
                        "node" : 7,
                        "path" : "rotation"
                    }
                }
            ],
            "name" : "Icosphere.004Action",
            "samplers" : [
                {
                    "input" : 30,
                    "interpolation" : "LINEAR",
                    "output" : 31
                }
            ]
        },
        {
            "channels" : [
                {
                    "sampler" : 0,
                    "target" : {
                        "node" : 2,
                        "path" : "rotation"
                    }
                }
            ],
            "name" : "CircleAction",
            "samplers" : [
                {
                    "input" : 26,
                    "interpolation" : "CUBICSPLINE",
                    "output" : 32
                }
            ]
        }
    ],
    "materials" : [
        {
            "alphaMode" : "BLEND",
            "doubleSided" : true,
            "name" : "Translucent",
            "pbrMetallicRoughness" : {
                "baseColorFactor" : [
                    1,
                    1,
                    1,
                    1
                ],
                "metallicFactor" : 0,
                "roughnessFactor" : 0.2022727131843567
            }
        },
        {
            "doubleSided" : true,
            "name" : "Red",
            "pbrMetallicRoughness" : {
                "baseColorFactor" : [
                    1,
                    0.04293086752295494,
                    0.04293086752295494,
                    1
                ],
                "metallicFactor" : 0,
                "roughnessFactor" : 0.5545454621315002
            }
        },
        {
            "doubleSided" : true,
            "name" : "DarkBlue",
            "pbrMetallicRoughness" : {
                "baseColorFactor" : [
                    0.0003035266709048301,
                    0.0006070540403015912,
                    0.07618538290262222,
                    1
                ],
                "metallicFactor" : 0,
                "roughnessFactor" : 0.6795454025268555
            }
        },
        {
            "doubleSided" : true,
            "name" : "Green",
            "pbrMetallicRoughness" : {
                "baseColorFactor" : [
                    0.1351039707660675,
                    0.42701345682144165,
                    0.05712085962295532,
                    1
                ],
                "metallicFactor" : 0,
                "roughnessFactor" : 0.5886363387107849
            }
        },
        {
            "doubleSided" : true,
            "name" : "Purple",
            "pbrMetallicRoughness" : {
                "baseColorFactor" : [
                    0.08865559101104736,
                    0.039546236395835876,
                    0.12743771076202393,
                    1
                ],
                "metallicFactor" : 0,
                "roughnessFactor" : 0.906818151473999
            }
        },
        {
            "doubleSided" : true,
            "name" : "DarkPink",
            "pbrMetallicRoughness" : {
                "baseColorFactor" : [
                    0.25818291306495667,
                    0.05612849444150925,
                    0.13563336431980133,
                    1
                ],
                "metallicFactor" : 0,
                "roughnessFactor" : 0.6068181395530701
            }
        },
        {
            "doubleSided" : true,
            "name" : "LightBlue",
            "pbrMetallicRoughness" : {
                "baseColorFactor" : [
                    0.01032475009560585,
                    0.03991522639989853,
                    1,
                    1
                ],
                "metallicFactor" : 0.4113636314868927,
                "roughnessFactor" : 0.2340908646583557
            }
        }
    ],
    "meshes" : [
        {
            "name" : "Circle",
            "primitives" : [
                {
                    "attributes" : {
                        "POSITION" : 0,
                        "NORMAL" : 1,
                        "TEXCOORD_0" : 2
                    },
                    "indices" : 3,
                    "material" : 0
                }
            ]
        },
        {
            "name" : "Icosphere",
            "primitives" : [
                {
                    "attributes" : {
                        "POSITION" : 4,
                        "NORMAL" : 5,
                        "TEXCOORD_0" : 6
                    },
                    "indices" : 7,
                    "material" : 1
                }
            ]
        },
        {
            "name" : "Icosphere.001",
            "primitives" : [
                {
                    "attributes" : {
                        "POSITION" : 8,
                        "NORMAL" : 9,
                        "TEXCOORD_0" : 10
                    },
                    "indices" : 7,
                    "material" : 2
                }
            ]
        },
        {
            "name" : "Icosphere.002",
            "primitives" : [
                {
                    "attributes" : {
                        "POSITION" : 11,
                        "NORMAL" : 12,
                        "TEXCOORD_0" : 13
                    },
                    "indices" : 7,
                    "material" : 3
                }
            ]
        },
        {
            "name" : "Icosphere.004",
            "primitives" : [
                {
                    "attributes" : {
                        "POSITION" : 14,
                        "NORMAL" : 15,
                        "TEXCOORD_0" : 16
                    },
                    "indices" : 7,
                    "material" : 4
                }
            ]
        },
        {
            "name" : "Icosphere.003",
            "primitives" : [
                {
                    "attributes" : {
                        "POSITION" : 17,
                        "NORMAL" : 18,
                        "TEXCOORD_0" : 19
                    },
                    "indices" : 7,
                    "material" : 5
                }
            ]
        },
        {
            "name" : "Plane",
            "primitives" : [
                {
                    "attributes" : {
                        "POSITION" : 20,
                        "NORMAL" : 21,
                        "TEXCOORD_0" : 22
                    },
                    "indices" : 23,
                    "material" : 6
                }
            ]
        }
    ],
    "accessors" : [
        {
            "bufferView" : 0,
            "componentType" : 5126,
            "count" : 208,
            "max" : [
                1.4585596323013306,
                0,
                1.4585597515106201
            ],
            "min" : [
                -1.4585601091384888,
                0,
                -1.4585599899291992
            ],
            "type" : "VEC3"
        },
        {
            "bufferView" : 1,
            "componentType" : 5126,
            "count" : 208,
            "type" : "VEC3"
        },
        {
            "bufferView" : 2,
            "componentType" : 5126,
            "count" : 208,
            "type" : "VEC2"
        },
        {
            "bufferView" : 3,
            "componentType" : 5123,
            "count" : 576,
            "type" : "SCALAR"
        },
        {
            "bufferView" : 4,
            "componentType" : 5126,
            "count" : 2737,
            "max" : [
                1,
                1,
                0.9999999403953552
            ],
            "min" : [
                -0.9999999403953552,
                -1,
                -0.9999999403953552
            ],
            "type" : "VEC3"
        },
        {
            "bufferView" : 5,
            "componentType" : 5126,
            "count" : 2737,
            "type" : "VEC3"
        },
        {
            "bufferView" : 6,
            "componentType" : 5126,
            "count" : 2737,
            "type" : "VEC2"
        },
        {
            "bufferView" : 7,
            "componentType" : 5123,
            "count" : 15360,
            "type" : "SCALAR"
        },
        {
            "bufferView" : 8,
            "componentType" : 5126,
            "count" : 2737,
            "max" : [
                0.5951374173164368,
                0.5951374769210815,
                -2.3376235961914062
            ],
            "min" : [
                -0.595137357711792,
                -0.5951372385025024,
                -3.5278983116149902
            ],
            "type" : "VEC3"
        },
        {
            "bufferView" : 9,
            "componentType" : 5126,
            "count" : 2737,
            "type" : "VEC3"
        },
        {
            "bufferView" : 10,
            "componentType" : 5126,
            "count" : 2737,
            "type" : "VEC2"
        },
        {
            "bufferView" : 11,
            "componentType" : 5126,
            "count" : 2737,
            "max" : [
                0.2724865674972534,
                0.2724866569042206,
                -3.4664928913116455
            ],
            "min" : [
                -0.27248668670654297,
                -0.2724865972995758,
                -4.011466026306152
            ],
            "type" : "VEC3"
        },
        {
            "bufferView" : 12,
            "componentType" : 5126,
            "count" : 2737,
            "type" : "VEC3"
        },
        {
            "bufferView" : 13,
            "componentType" : 5126,
            "count" : 2737,
            "type" : "VEC2"
        },
        {
            "bufferView" : 14,
            "componentType" : 5126,
            "count" : 2737,
            "max" : [
                2.149944305419922,
                0.168620765209198,
                0.1686207354068756
            ],
            "min" : [
                1.8127026557922363,
                -0.1686207354068756,
                -0.1686207354068756
            ],
            "type" : "VEC3"
        },
        {
            "bufferView" : 15,
            "componentType" : 5126,
            "count" : 2737,
            "type" : "VEC3"
        },
        {
            "bufferView" : 16,
            "componentType" : 5126,
            "count" : 2737,
            "type" : "VEC2"
        },
        {
            "bufferView" : 17,
            "componentType" : 5126,
            "count" : 2737,
            "max" : [
                0.48864707350730896,
                0.4886472225189209,
                -4.758187770843506
            ],
            "min" : [
                -0.48864710330963135,
                -0.48864689469337463,
                -5.7354817390441895
            ],
            "type" : "VEC3"
        },
        {
            "bufferView" : 18,
            "componentType" : 5126,
            "count" : 2737,
            "type" : "VEC3"
        },
        {
            "bufferView" : 19,
            "componentType" : 5126,
            "count" : 2737,
            "type" : "VEC2"
        },
        {
            "bufferView" : 20,
            "componentType" : 5126,
            "count" : 4,
            "max" : [
                1,
                0,
                1
            ],
            "min" : [
                -1,
                0,
                -1
            ],
            "type" : "VEC3"
        },
        {
            "bufferView" : 21,
            "componentType" : 5126,
            "count" : 4,
            "type" : "VEC3"
        },
        {
            "bufferView" : 22,
            "componentType" : 5126,
            "count" : 4,
            "type" : "VEC2"
        },
        {
            "bufferView" : 23,
            "componentType" : 5123,
            "count" : 6,
            "type" : "SCALAR"
        },
        {
            "bufferView" : 24,
            "componentType" : 5126,
            "count" : 3,
            "max" : [
                10.416666666666666
            ],
            "min" : [
                0
            ],
            "type" : "SCALAR"
        },
        {
            "bufferView" : 25,
            "componentType" : 5126,
            "count" : 9,
            "type" : "VEC3"
        },
        {
            "bufferView" : 26,
            "componentType" : 5126,
            "count" : 2,
            "max" : [
                10.416666666666666
            ],
            "min" : [
                0
            ],
            "type" : "SCALAR"
        },
        {
            "bufferView" : 27,
            "componentType" : 5126,
            "count" : 2,
            "type" : "VEC4"
        },
        {
            "bufferView" : 28,
            "componentType" : 5126,
            "count" : 2,
            "type" : "VEC4"
        },
        {
            "bufferView" : 29,
            "componentType" : 5126,
            "count" : 2,
            "type" : "VEC4"
        },
        {
            "bufferView" : 30,
            "componentType" : 5126,
            "count" : 251,
            "max" : [
                10.416666666666666
            ],
            "min" : [
                0
            ],
            "type" : "SCALAR"
        },
        {
            "bufferView" : 31,
            "componentType" : 5126,
            "count" : 251,
            "type" : "VEC4"
        },
        {
            "bufferView" : 32,
            "componentType" : 5126,
            "count" : 6,
            "type" : "VEC4"
        }
    ],
    "bufferViews" : [
        {
            "buffer" : 0,
            "byteLength" : 2496,
            "byteOffset" : 0
        },
        {
            "buffer" : 0,
            "byteLength" : 2496,
            "byteOffset" : 2496
        },
        {
            "buffer" : 0,
            "byteLength" : 1664,
            "byteOffset" : 4992
        },
        {
            "buffer" : 0,
            "byteLength" : 1152,
            "byteOffset" : 6656
        },
        {
            "buffer" : 0,
            "byteLength" : 32844,
            "byteOffset" : 7808
        },
        {
            "buffer" : 0,
            "byteLength" : 32844,
            "byteOffset" : 40652
        },
        {
            "buffer" : 0,
            "byteLength" : 21896,
            "byteOffset" : 73496
        },
        {
            "buffer" : 0,
            "byteLength" : 30720,
            "byteOffset" : 95392
        },
        {
            "buffer" : 0,
            "byteLength" : 32844,
            "byteOffset" : 126112
        },
        {
            "buffer" : 0,
            "byteLength" : 32844,
            "byteOffset" : 158956
        },
        {
            "buffer" : 0,
            "byteLength" : 21896,
            "byteOffset" : 191800
        },
        {
            "buffer" : 0,
            "byteLength" : 32844,
            "byteOffset" : 213696
        },
        {
            "buffer" : 0,
            "byteLength" : 32844,
            "byteOffset" : 246540
        },
        {
            "buffer" : 0,
            "byteLength" : 21896,
            "byteOffset" : 279384
        },
        {
            "buffer" : 0,
            "byteLength" : 32844,
            "byteOffset" : 301280
        },
        {
            "buffer" : 0,
            "byteLength" : 32844,
            "byteOffset" : 334124
        },
        {
            "buffer" : 0,
            "byteLength" : 21896,
            "byteOffset" : 366968
        },
        {
            "buffer" : 0,
            "byteLength" : 32844,
            "byteOffset" : 388864
        },
        {
            "buffer" : 0,
            "byteLength" : 32844,
            "byteOffset" : 421708
        },
        {
            "buffer" : 0,
            "byteLength" : 21896,
            "byteOffset" : 454552
        },
        {
            "buffer" : 0,
            "byteLength" : 48,
            "byteOffset" : 476448
        },
        {
            "buffer" : 0,
            "byteLength" : 48,
            "byteOffset" : 476496
        },
        {
            "buffer" : 0,
            "byteLength" : 32,
            "byteOffset" : 476544
        },
        {
            "buffer" : 0,
            "byteLength" : 12,
            "byteOffset" : 476576
        },
        {
            "buffer" : 0,
            "byteLength" : 12,
            "byteOffset" : 476588
        },
        {
            "buffer" : 0,
            "byteLength" : 108,
            "byteOffset" : 476600
        },
        {
            "buffer" : 0,
            "byteLength" : 8,
            "byteOffset" : 476708
        },
        {
            "buffer" : 0,
            "byteLength" : 32,
            "byteOffset" : 476716
        },
        {
            "buffer" : 0,
            "byteLength" : 32,
            "byteOffset" : 476748
        },
        {
            "buffer" : 0,
            "byteLength" : 32,
            "byteOffset" : 476780
        },
        {
            "buffer" : 0,
            "byteLength" : 1004,
            "byteOffset" : 476812
        },
        {
            "buffer" : 0,
            "byteLength" : 4016,
            "byteOffset" : 477816
        },
        {
            "buffer" : 0,
            "byteLength" : 96,
            "byteOffset" : 481832
        }
    ],
    "buffers" : [
        {
            "byteLength" : 481928,
            "uri" : "data:application/octet-stream;base64,"
        }
    ]
}
